<mxfile><diagram id="Q0wDsi3ejKEVBW-9EXW7" name="Page-1"><mxGraphModel dx="834" dy="711" grid="1" gridSize="10" guides="1" tooltips="1" connect="1" arrows="1" fold="1" page="1" pageScale="1" pageWidth="827" pageHeight="1169" math="0" shadow="0"><root><mxCell id="0"/><mxCell id="1" parent="0"/><mxCell id="50" value="" style="edgeStyle=none;rounded=0;html=1;" parent="1" source="2" target="5" edge="1"><mxGeometry relative="1" as="geometry"/></mxCell><mxCell id="2" value="Start" style="strokeWidth=2;html=1;shape=mxgraph.flowchart.start_1;whiteSpace=wrap;" parent="1" vertex="1"><mxGeometry x="180" y="180" width="100" height="60" as="geometry"/></mxCell><mxCell id="9" value="" style="edgeStyle=none;html=1;" parent="1" source="3" target="8" edge="1"><mxGeometry relative="1" as="geometry"/></mxCell><mxCell id="3" value="input itemAmount" style="shape=parallelogram;perimeter=parallelogramPerimeter;whiteSpace=wrap;html=1;fixedSize=1;strokeWidth=2;" parent="1" vertex="1"><mxGeometry x="342" y="300" width="132" height="60" as="geometry"/></mxCell><mxCell id="7" value="" style="edgeStyle=none;html=1;" parent="1" source="5" target="3" edge="1"><mxGeometry relative="1" as="geometry"/></mxCell><mxCell id="5" value="input itemType" style="shape=parallelogram;perimeter=parallelogramPerimeter;whiteSpace=wrap;html=1;fixedSize=1;strokeWidth=2;" parent="1" vertex="1"><mxGeometry x="354" y="180" width="120" height="60" as="geometry"/></mxCell><mxCell id="11" value="" style="edgeStyle=none;html=1;" parent="1" source="8" target="10" edge="1"><mxGeometry relative="1" as="geometry"/></mxCell><mxCell id="16" value="" style="edgeStyle=none;html=1;" parent="1" source="8" target="15" edge="1"><mxGeometry relative="1" as="geometry"/></mxCell><mxCell id="8" value="if item == sub" style="rhombus;whiteSpace=wrap;html=1;strokeWidth=2;" parent="1" vertex="1"><mxGeometry x="354" y="430" width="98" height="100" as="geometry"/></mxCell><mxCell id="13" value="" style="edgeStyle=none;html=1;" parent="1" source="10" target="12" edge="1"><mxGeometry relative="1" as="geometry"/></mxCell><mxCell id="18" value="" style="edgeStyle=none;html=1;" parent="1" source="10" target="17" edge="1"><mxGeometry relative="1" as="geometry"/></mxCell><mxCell id="10" value="else if item == pizza" style="rhombus;whiteSpace=wrap;html=1;strokeWidth=2;" parent="1" vertex="1"><mxGeometry x="532" y="430" width="98" height="100" as="geometry"/></mxCell><mxCell id="20" value="" style="edgeStyle=none;html=1;" parent="1" source="12" target="19" edge="1"><mxGeometry relative="1" as="geometry"/></mxCell><mxCell id="56" value="" style="edgeStyle=none;rounded=0;html=1;entryX=1;entryY=0.5;entryDx=0;entryDy=0;entryPerimeter=0;" parent="1" source="12" target="35" edge="1"><mxGeometry relative="1" as="geometry"><mxPoint x="888" y="480" as="targetPoint"/><Array as="points"><mxPoint x="900" y="480"/><mxPoint x="900" y="1245"/></Array></mxGeometry></mxCell><mxCell id="12" value="else if item == soup" style="rhombus;whiteSpace=wrap;html=1;strokeWidth=2;" parent="1" vertex="1"><mxGeometry x="710" y="430" width="98" height="100" as="geometry"/></mxCell><mxCell id="22" value="" style="edgeStyle=none;html=1;" parent="1" source="15" target="21" edge="1"><mxGeometry relative="1" as="geometry"/></mxCell><mxCell id="15" value="time == 45" style="whiteSpace=wrap;html=1;strokeWidth=2;" parent="1" vertex="1"><mxGeometry x="343" y="630" width="120" height="60" as="geometry"/></mxCell><mxCell id="17" value="time == 60" style="whiteSpace=wrap;html=1;strokeWidth=2;" parent="1" vertex="1"><mxGeometry x="521" y="630" width="120" height="60" as="geometry"/></mxCell><mxCell id="19" value="time == 90" style="whiteSpace=wrap;html=1;strokeWidth=2;" parent="1" vertex="1"><mxGeometry x="699" y="630" width="120" height="60" as="geometry"/></mxCell><mxCell id="24" value="" style="edgeStyle=none;html=1;" parent="1" source="21" target="23" edge="1"><mxGeometry relative="1" as="geometry"/></mxCell><mxCell id="26" value="" style="edgeStyle=none;html=1;" parent="1" source="21" target="25" edge="1"><mxGeometry relative="1" as="geometry"/></mxCell><mxCell id="21" value="if itemAmount = 2" style="rhombus;whiteSpace=wrap;html=1;strokeWidth=2;" parent="1" vertex="1"><mxGeometry x="354" y="750" width="93" height="90" as="geometry"/></mxCell><mxCell id="32" value="" style="edgeStyle=none;html=1;" parent="1" source="23" target="31" edge="1"><mxGeometry relative="1" as="geometry"/></mxCell><mxCell id="23" value="percent = 1.5" style="whiteSpace=wrap;html=1;strokeWidth=2;" parent="1" vertex="1"><mxGeometry x="340.5" y="935" width="120" height="60" as="geometry"/></mxCell><mxCell id="28" value="" style="edgeStyle=none;html=1;" parent="1" source="25" target="27" edge="1"><mxGeometry relative="1" as="geometry"/></mxCell><mxCell id="30" value="" style="edgeStyle=none;html=1;" parent="1" source="25" target="29" edge="1"><mxGeometry relative="1" as="geometry"/></mxCell><mxCell id="25" value="if itemAmount = 3" style="rhombus;whiteSpace=wrap;html=1;strokeWidth=2;" parent="1" vertex="1"><mxGeometry x="527" y="750" width="93" height="90" as="geometry"/></mxCell><mxCell id="27" value="percent = 2" style="whiteSpace=wrap;html=1;strokeWidth=2;" parent="1" vertex="1"><mxGeometry x="513.5" y="935" width="120" height="60" as="geometry"/></mxCell><mxCell id="45" value="" style="edgeStyle=none;rounded=0;html=1;" parent="1" source="29" target="44" edge="1"><mxGeometry relative="1" as="geometry"/></mxCell><mxCell id="48" value="" style="edgeStyle=none;rounded=0;html=1;entryX=1;entryY=0.5;entryDx=0;entryDy=0;entryPerimeter=0;" parent="1" source="29" target="35" edge="1"><mxGeometry relative="1" as="geometry"><mxPoint x="873" y="795" as="targetPoint"/><Array as="points"><mxPoint x="900" y="795"/><mxPoint x="900" y="1245"/></Array></mxGeometry></mxCell><mxCell id="29" value="if itemAmount = 1" style="rhombus;whiteSpace=wrap;html=1;strokeWidth=2;" parent="1" vertex="1"><mxGeometry x="700" y="750" width="93" height="90" as="geometry"/></mxCell><mxCell id="34" value="" style="edgeStyle=none;html=1;" parent="1" source="31" target="33" edge="1"><mxGeometry relative="1" as="geometry"/></mxCell><mxCell id="31" value="answer = time * percent" style="whiteSpace=wrap;html=1;strokeWidth=2;" parent="1" vertex="1"><mxGeometry x="340.5" y="1075" width="120" height="60" as="geometry"/></mxCell><mxCell id="36" value="" style="edgeStyle=none;html=1;" parent="1" source="33" target="35" edge="1"><mxGeometry relative="1" as="geometry"/></mxCell><mxCell id="33" value="show answer" style="shape=parallelogram;perimeter=parallelogramPerimeter;whiteSpace=wrap;html=1;fixedSize=1;strokeWidth=2;" parent="1" vertex="1"><mxGeometry x="340.5" y="1215" width="120" height="60" as="geometry"/></mxCell><mxCell id="35" value="End" style="strokeWidth=2;html=1;shape=mxgraph.flowchart.terminator;whiteSpace=wrap;" parent="1" vertex="1"><mxGeometry x="510" y="1215" width="100" height="60" as="geometry"/></mxCell><mxCell id="39" value="" style="endArrow=none;html=1;exitX=0.5;exitY=1;exitDx=0;exitDy=0;rounded=0;" parent="1" source="17" edge="1"><mxGeometry width="50" height="50" relative="1" as="geometry"><mxPoint x="750" y="820" as="sourcePoint"/><mxPoint x="400" y="720" as="targetPoint"/><Array as="points"><mxPoint x="581" y="720"/></Array></mxGeometry></mxCell><mxCell id="40" value="" style="endArrow=none;html=1;rounded=0;entryX=0.5;entryY=1;entryDx=0;entryDy=0;" parent="1" target="19" edge="1"><mxGeometry width="50" height="50" relative="1" as="geometry"><mxPoint x="580" y="720" as="sourcePoint"/><mxPoint x="800" y="770" as="targetPoint"/><Array as="points"><mxPoint x="759" y="720"/></Array></mxGeometry></mxCell><mxCell id="41" value="" style="endArrow=none;html=1;rounded=0;entryX=0.5;entryY=1;entryDx=0;entryDy=0;" parent="1" target="27" edge="1"><mxGeometry width="50" height="50" relative="1" as="geometry"><mxPoint x="400" y="1040" as="sourcePoint"/><mxPoint x="800" y="870" as="targetPoint"/><Array as="points"><mxPoint x="574" y="1040"/></Array></mxGeometry></mxCell><mxCell id="44" value="percent = 1" style="whiteSpace=wrap;html=1;strokeWidth=2;" parent="1" vertex="1"><mxGeometry x="686.5" y="935" width="120" height="60" as="geometry"/></mxCell><mxCell id="49" value="" style="endArrow=none;html=1;rounded=0;entryX=0.5;entryY=1;entryDx=0;entryDy=0;" parent="1" target="44" edge="1"><mxGeometry width="50" height="50" relative="1" as="geometry"><mxPoint x="570" y="1040" as="sourcePoint"/><mxPoint x="920" y="890" as="targetPoint"/><Array as="points"><mxPoint x="747" y="1040"/></Array></mxGeometry></mxCell><mxCell id="51" value="false" style="text;html=1;align=center;verticalAlign=middle;resizable=0;points=[];autosize=1;strokeColor=none;fillColor=none;" parent="1" vertex="1"><mxGeometry x="450" y="440" width="40" height="20" as="geometry"/></mxCell><mxCell id="52" value="true" style="text;html=1;align=center;verticalAlign=middle;resizable=0;points=[];autosize=1;strokeColor=none;fillColor=none;" parent="1" vertex="1"><mxGeometry x="400" y="530" width="40" height="20" as="geometry"/></mxCell><mxCell id="53" value="false" style="text;html=1;align=center;verticalAlign=middle;resizable=0;points=[];autosize=1;strokeColor=none;fillColor=none;" parent="1" vertex="1"><mxGeometry x="620" y="450" width="40" height="20" as="geometry"/></mxCell><mxCell id="54" value="true" style="text;html=1;align=center;verticalAlign=middle;resizable=0;points=[];autosize=1;strokeColor=none;fillColor=none;" parent="1" vertex="1"><mxGeometry x="591" y="530" width="40" height="20" as="geometry"/></mxCell><mxCell id="57" value="false" style="text;html=1;align=center;verticalAlign=middle;resizable=0;points=[];autosize=1;strokeColor=none;fillColor=none;" parent="1" vertex="1"><mxGeometry x="800" y="440" width="40" height="20" as="geometry"/></mxCell><mxCell id="58" value="true" style="text;html=1;align=center;verticalAlign=middle;resizable=0;points=[];autosize=1;strokeColor=none;fillColor=none;" parent="1" vertex="1"><mxGeometry x="770" y="530" width="40" height="20" as="geometry"/></mxCell><mxCell id="59" value="true" style="text;html=1;align=center;verticalAlign=middle;resizable=0;points=[];autosize=1;strokeColor=none;fillColor=none;" parent="1" vertex="1"><mxGeometry x="410" y="840" width="40" height="20" as="geometry"/></mxCell><mxCell id="60" value="false" style="text;html=1;align=center;verticalAlign=middle;resizable=0;points=[];autosize=1;strokeColor=none;fillColor=none;" parent="1" vertex="1"><mxGeometry x="430" y="750" width="40" height="20" as="geometry"/></mxCell><mxCell id="61" value="false" style="text;html=1;align=center;verticalAlign=middle;resizable=0;points=[];autosize=1;strokeColor=none;fillColor=none;" parent="1" vertex="1"><mxGeometry x="600" y="760" width="40" height="20" as="geometry"/></mxCell><mxCell id="62" value="true" style="text;html=1;align=center;verticalAlign=middle;resizable=0;points=[];autosize=1;strokeColor=none;fillColor=none;" parent="1" vertex="1"><mxGeometry x="570" y="840" width="40" height="20" as="geometry"/></mxCell><mxCell id="63" value="false" style="text;html=1;align=center;verticalAlign=middle;resizable=0;points=[];autosize=1;strokeColor=none;fillColor=none;" parent="1" vertex="1"><mxGeometry x="780" y="770" width="40" height="20" as="geometry"/></mxCell><mxCell id="64" value="true" style="text;html=1;align=center;verticalAlign=middle;resizable=0;points=[];autosize=1;strokeColor=none;fillColor=none;" parent="1" vertex="1"><mxGeometry x="750" y="840" width="40" height="20" as="geometry"/></mxCell></root></mxGraphModel></diagram></mxfile>